<svg width="24" height="24" viewBox="0 0 24 24" fill="none" xmlns="http://www.w3.org/2000/svg">
<g id="Star Point Element">
<g id="Star Point Element_2">
<path d="M11.1751 1.20359C11.5723 0.624014 12.4277 0.624014 12.8249 1.20359L16.031 5.88175C16.1611 6.07148 16.3525 6.21059 16.5731 6.27562L22.0131 7.87923C22.687 8.07789 22.9514 8.89136 22.5229 9.44822L19.0645 13.9431C18.9242 14.1254 18.8511 14.3505 18.8574 14.5804L19.0133 20.2496C19.0326 20.952 18.3406 21.4547 17.6786 21.2193L12.335 19.3191C12.1183 19.2421 11.8817 19.2421 11.665 19.3191L6.32136 21.2193C5.65935 21.4547 4.96738 20.952 4.98669 20.2496L5.14262 14.5804C5.14894 14.3505 5.07581 14.1254 4.93555 13.9431L1.4771 9.44822C1.04864 8.89136 1.31295 8.07789 1.9869 7.87923L7.42686 6.27562C7.64748 6.21059 7.83894 6.07148 7.96898 5.88175L11.1751 1.20359Z" fill="black" fill-opacity="0.05"/>
<path d="M11.5876 1.48625C11.7862 1.19646 12.2138 1.19646 12.4124 1.48625L15.6186 6.16441L16.031 5.88175L15.6186 6.16441C15.8136 6.44901 16.1008 6.65767 16.4318 6.75522L21.8717 8.35882C22.2087 8.45816 22.3409 8.86489 22.1266 9.14332L18.6682 13.6382C18.4578 13.9116 18.3481 14.2492 18.3576 14.5941L18.5135 20.2634C18.5232 20.6146 18.1772 20.8659 17.8462 20.7482L12.5026 18.848L12.335 19.3191L12.5026 18.848C12.1775 18.7324 11.8225 18.7324 11.4974 18.848L11.665 19.3191L11.4974 18.848L6.15384 20.7482C5.82283 20.8659 5.47685 20.6146 5.4865 20.2634L5.64243 14.5941C5.65191 14.2492 5.54221 13.9116 5.33182 13.6382L1.87338 9.14332C1.65915 8.86489 1.7913 8.45816 2.12828 8.35882L7.56823 6.75522C7.89917 6.65767 8.18636 6.44901 8.38141 6.16441L11.5876 1.48625Z" stroke="black" stroke-opacity="0.15"/>
</g>
</g>
</svg>
