<svg width="24" height="24" viewBox="0 0 24 24" fill="none" xmlns="http://www.w3.org/2000/svg">
<g id="Star Point Element">
<path id="Star Point Element_2" d="M12.4124 1.48625L15.6186 6.16441C15.8136 6.44901 16.1008 6.65767 16.4318 6.75522L21.8717 8.35882C22.2087 8.45816 22.3409 8.86489 22.1266 9.14332L18.6682 13.6382C18.4578 13.9116 18.3481 14.2492 18.3576 14.5941L18.5135 20.2634C18.5232 20.6146 18.1772 20.8659 17.8462 20.7482L12.5026 18.848C12.1775 18.7324 11.8225 18.7324 11.4974 18.848L6.15384 20.7482C5.82283 20.8659 5.47685 20.6146 5.4865 20.2634L5.64243 14.5941C5.65191 14.2492 5.54222 13.9116 5.33182 13.6382L1.87338 9.14332C1.65915 8.86489 1.7913 8.45816 2.12828 8.35882L7.56823 6.75522C7.89917 6.65767 8.18636 6.44901 8.38141 6.16441L11.5876 1.48625C11.7862 1.19646 12.2138 1.19646 12.4124 1.48625Z" fill="#F7B32B" stroke="#FFAE00"/>
</g>
</svg>
