<svg width="16" height="16" viewBox="0 0 16 16" fill="none" xmlns="http://www.w3.org/2000/svg">
<g id="Icon - Female" opacity="0.5">
<path id="Vector" d="M7.33333 10.6219C4.88709 10.296 3 8.20142 3 5.66602C3 2.90459 5.23857 0.666016 8 0.666016C10.7614 0.666016 13 2.90459 13 5.66602C13 8.20142 11.1129 10.296 8.66667 10.6219V11.9993H12V13.3327H8.66667V15.9993H7.33333V13.3327H4V11.9993H7.33333V10.6219ZM8 9.33268C10.0251 9.33268 11.6667 7.69108 11.6667 5.66602C11.6667 3.64097 10.0251 1.99935 8 1.99935C5.97495 1.99935 4.33333 3.64097 4.33333 5.66602C4.33333 7.69108 5.97495 9.33268 8 9.33268Z" fill="#302825"/>
</g>
</svg>
