<svg width="16" height="16" viewBox="0 0 16 16" fill="none" xmlns="http://www.w3.org/2000/svg">
<g id="Icon - Information">
<path id="Vector" d="M8.00016 14.6673C4.31826 14.6673 1.3335 11.6825 1.3335 8.00065C1.3335 4.31875 4.31826 1.33398 8.00016 1.33398C11.682 1.33398 14.6668 4.31875 14.6668 8.00065C14.6668 11.6825 11.682 14.6673 8.00016 14.6673ZM8.00016 6.33398C8.55243 6.33398 9.00016 5.88627 9.00016 5.33398C9.00016 4.7817 8.55243 4.33398 8.00016 4.33398C7.4479 4.33398 7.00016 4.7817 7.00016 5.33398C7.00016 5.88627 7.4479 6.33398 8.00016 6.33398ZM9.3335 10.0007H8.66683V7.00065H6.66683V8.33398H7.3335V10.0007H6.66683V11.334H9.3335V10.0007Z" fill="#5960E8"/>
</g>
</svg>
