<svg width="16" height="16" viewBox="0 0 16 16" fill="none" xmlns="http://www.w3.org/2000/svg">
<g id="Icon - Calendar" opacity="0.5">
<path id="Vector" d="M6.00016 0.666016V1.99935H10.0002V0.666016H11.3335V1.99935H14.0002C14.3684 1.99935 14.6668 2.29783 14.6668 2.66602V13.3327C14.6668 13.7009 14.3684 13.9993 14.0002 13.9993H2.00016C1.63198 13.9993 1.3335 13.7009 1.3335 13.3327V2.66602C1.3335 2.29783 1.63198 1.99935 2.00016 1.99935H4.66683V0.666016H6.00016ZM13.3335 7.33268H2.66683V12.666H13.3335V7.33268ZM7.3335 8.66602V11.3327H4.00016V8.66602H7.3335ZM4.66683 3.33268H2.66683V5.99935H13.3335V3.33268H11.3335V4.66602H10.0002V3.33268H6.00016V4.66602H4.66683V3.33268Z" fill="#302825"/>
</g>
</svg>
