<svg width="16" height="16" viewBox="0 0 16 16" fill="none" xmlns="http://www.w3.org/2000/svg">
<g id="Icon - Male" opacity="0.5">
<path id="Vector" d="M10.0327 5.69111L12.3905 3.33333H9.33333V2H14.6667V7.33333H13.3333V4.27614L10.9755 6.63392C11.6183 7.47513 12 8.52633 12 9.66667C12 12.4281 9.7614 14.6667 7 14.6667C4.23857 14.6667 2 12.4281 2 9.66667C2 6.90527 4.23857 4.66667 7 4.66667C8.14033 4.66667 9.19153 5.04843 10.0327 5.69111ZM7 13.3333C9.02507 13.3333 10.6667 11.6917 10.6667 9.66667C10.6667 7.6416 9.02507 6 7 6C4.97495 6 3.33333 7.6416 3.33333 9.66667C3.33333 11.6917 4.97495 13.3333 7 13.3333Z" fill="#302825"/>
</g>
</svg>
